<svg width="25" height="24" viewBox="0 0 25 24" fill="none" xmlns="http://www.w3.org/2000/svg">
<path d="M23.06 12.25C23.06 11.47 22.99 10.72 22.86 10H12.5V14.26H18.42C18.16 15.63 17.38 16.79 16.21 17.57V20.34H19.78C21.86 18.42 23.06 15.6 23.06 12.25Z" fill="#4285F4"/>
<path d="M12.5002 22.9996C15.4702 22.9996 17.9602 22.0196 19.7802 20.3396L16.2102 17.5696C15.2302 18.2296 13.9802 18.6296 12.5002 18.6296C9.64018 18.6296 7.21018 16.6996 6.34018 14.0996H2.68018V16.9396C4.49018 20.5296 8.20018 22.9996 12.5002 22.9996Z" fill="#34A853"/>
<path d="M6.34 14.0903C6.12 13.4303 5.99 12.7303 5.99 12.0003C5.99 11.2703 6.12 10.5703 6.34 9.91031V7.07031H2.68C1.93 8.55031 1.5 10.2203 1.5 12.0003C1.5 13.7803 1.93 15.4503 2.68 16.9303L5.53 14.7103L6.34 14.0903Z" fill="#FBBC05"/>
<path d="M12.5002 5.38C14.1202 5.38 15.5602 5.94 16.7102 7.02L19.8602 3.87C17.9502 2.09 15.4702 1 12.5002 1C8.20018 1 4.49018 3.47 2.68018 7.07L6.34018 9.91C7.21018 7.31 9.64018 5.38 12.5002 5.38Z" fill="#EA4335"/>
</svg>
