<svg width="32" height="33" viewBox="0 0 32 33" fill="none" xmlns="http://www.w3.org/2000/svg">
<path d="M14.8652 15.0161H15.6939C15.6939 15.2078 15.6274 15.3936 15.5058 15.5418C15.3842 15.69 15.2149 15.7914 15.0269 15.8288C14.8389 15.8662 14.6437 15.8373 14.4746 15.7469C14.3056 15.6565 14.1731 15.5103 14.0997 15.3332C14.0263 15.1561 14.0167 14.959 14.0723 14.7756C14.128 14.5921 14.2455 14.4337 14.4049 14.3271C14.5643 14.2206 14.7557 14.1727 14.9465 14.1915C15.1372 14.2103 15.3156 14.2946 15.4512 14.4302" stroke="#EB5757" stroke-width="0.177809" stroke-linecap="round" stroke-linejoin="round"/>
<path d="M27.5303 3.61719L17.5366 11.0397L19.3847 6.6605L27.5303 3.61719Z" fill="#E2761B" stroke="#E2761B" stroke-width="0.0889046" stroke-linecap="round" stroke-linejoin="round"/>
<path d="M4.45947 3.61719L14.3728 11.11L12.6152 6.6605L4.45947 3.61719Z" fill="#E4761B" stroke="#E4761B" stroke-width="0.0889046" stroke-linecap="round" stroke-linejoin="round"/>
<path d="M23.9346 20.8242L21.2729 24.9021L26.9679 26.4689L28.605 20.9146L23.9346 20.8242Z" fill="#E4761B" stroke="#E4761B" stroke-width="0.0889046" stroke-linecap="round" stroke-linejoin="round"/>
<path d="M3.40479 20.9146L5.0319 26.4689L10.7268 24.9021L8.06518 20.8242L3.40479 20.9146Z" fill="#E4761B" stroke="#E4761B" stroke-width="0.0889046" stroke-linecap="round" stroke-linejoin="round"/>
<path d="M10.4053 13.9328L8.81836 16.3333L14.4731 16.5844L14.2722 10.5078L10.4053 13.9328Z" fill="#E4761B" stroke="#E4761B" stroke-width="0.0889046" stroke-linecap="round" stroke-linejoin="round"/>
<path d="M21.5843 13.9328L17.6672 10.4375L17.5366 16.5844L23.1813 16.3333L21.5843 13.9328Z" fill="#E4761B" stroke="#E4761B" stroke-width="0.0889046" stroke-linecap="round" stroke-linejoin="round"/>
<path d="M10.7271 24.9004L14.1219 23.2431L11.1891 20.9531L10.7271 24.9004Z" fill="#E4761B" stroke="#E4761B" stroke-width="0.0889046" stroke-linecap="round" stroke-linejoin="round"/>
<path d="M17.8682 23.2431L21.2731 24.9004L20.801 20.9531L17.8682 23.2431Z" fill="#E4761B" stroke="#E4761B" stroke-width="0.0889046" stroke-linecap="round" stroke-linejoin="round"/>
<path d="M21.2731 24.8994L17.8682 23.2422L18.1394 25.4619L18.1092 26.396L21.2731 24.8994Z" fill="#D7C1B3" stroke="#D7C1B3" stroke-width="0.0889046" stroke-linecap="round" stroke-linejoin="round"/>
<path d="M10.7271 24.8994L13.8909 26.396L13.8708 25.4619L14.1219 23.2422L10.7271 24.8994Z" fill="#D7C1B3" stroke="#D7C1B3" stroke-width="0.0889046" stroke-linecap="round" stroke-linejoin="round"/>
<path d="M13.9408 19.4859L11.1084 18.6523L13.1071 17.7383L13.9408 19.4859Z" fill="#233447" stroke="#233447" stroke-width="0.0889046" stroke-linecap="round" stroke-linejoin="round"/>
<path d="M18.0488 19.4859L18.8825 17.7383L20.8913 18.6523L18.0488 19.4859Z" fill="#233447" stroke="#233447" stroke-width="0.0889046" stroke-linecap="round" stroke-linejoin="round"/>
<path d="M10.7271 24.8982L11.2092 20.8203L8.06543 20.9107L10.7271 24.8982Z" fill="#CD6116" stroke="#CD6116" stroke-width="0.0889046" stroke-linecap="round" stroke-linejoin="round"/>
<path d="M20.791 20.8203L21.2731 24.8982L23.9348 20.9107L20.791 20.8203Z" fill="#CD6116" stroke="#CD6116" stroke-width="0.0889046" stroke-linecap="round" stroke-linejoin="round"/>
<path d="M23.1818 16.332L17.5371 16.5831L18.0594 19.4858L18.893 17.7382L20.9018 18.6522L23.1818 16.332Z" fill="#CD6116" stroke="#CD6116" stroke-width="0.0889046" stroke-linecap="round" stroke-linejoin="round"/>
<path d="M11.1089 18.6522L13.1177 17.7382L13.9413 19.4858L14.4736 16.5831L8.81885 16.332L11.1089 18.6522Z" fill="#CD6116" stroke="#CD6116" stroke-width="0.0889046" stroke-linecap="round" stroke-linejoin="round"/>
<path d="M8.81836 16.332L11.1887 20.9522L11.1084 18.6522L8.81836 16.332Z" fill="#E4751F" stroke="#E4751F" stroke-width="0.0889046" stroke-linecap="round" stroke-linejoin="round"/>
<path d="M20.9012 18.6522L20.8008 20.9522L23.1812 16.332L20.9012 18.6522Z" fill="#E4751F" stroke="#E4751F" stroke-width="0.0889046" stroke-linecap="round" stroke-linejoin="round"/>
<path d="M14.4732 16.582L13.9409 19.4847L14.6038 22.9097L14.7545 18.4L14.4732 16.582Z" fill="#E4751F" stroke="#E4751F" stroke-width="0.0889046" stroke-linecap="round" stroke-linejoin="round"/>
<path d="M17.5363 16.582L17.2651 18.3899L17.3857 22.9097L18.0586 19.4847L17.5363 16.582Z" fill="#E4751F" stroke="#E4751F" stroke-width="0.0889046" stroke-linecap="round" stroke-linejoin="round"/>
<path d="M18.0592 19.486L17.3862 22.911L17.8683 23.2424L20.8012 20.9524L20.9016 18.6523L18.0592 19.486Z" fill="#F6851B" stroke="#F6851B" stroke-width="0.0889046" stroke-linecap="round" stroke-linejoin="round"/>
<path d="M11.1084 18.6523L11.1888 20.9524L14.1216 23.2424L14.6037 22.911L13.9408 19.486L11.1084 18.6523Z" fill="#F6851B" stroke="#F6851B" stroke-width="0.0889046" stroke-linecap="round" stroke-linejoin="round"/>
<path d="M18.1093 26.395L18.1395 25.4609L17.8884 25.2399H14.1018L13.8708 25.4609L13.8909 26.395L10.7271 24.8984L11.8319 25.8024L14.0717 27.3592H17.9185L20.1684 25.8024L21.2732 24.8984L18.1093 26.395Z" fill="#C0AD9E" stroke="#C0AD9E" stroke-width="0.0889046" stroke-linecap="round" stroke-linejoin="round"/>
<path d="M17.8681 23.2416L17.386 22.9102H14.6038L14.1217 23.2416L13.8706 25.4613L14.1016 25.2403H17.8882L18.1393 25.4613L17.8681 23.2416Z" fill="#161616" stroke="#161616" stroke-width="0.0889046" stroke-linecap="round" stroke-linejoin="round"/>
<path d="M27.9523 11.5218L28.806 7.42384L27.5304 3.61719L17.8682 10.7886L21.5844 13.9323L26.8374 15.469L28.0025 14.1131L27.5003 13.7515L28.3038 13.0183L27.6811 12.5362L28.4846 11.9235L27.9523 11.5218Z" fill="#763D16" stroke="#763D16" stroke-width="0.0889046" stroke-linecap="round" stroke-linejoin="round"/>
<path d="M3.19385 7.42384L4.04758 11.5218L3.50521 11.9235L4.30873 12.5362L3.69604 13.0183L4.49956 13.7515L3.99736 14.1131L5.15242 15.469L10.4054 13.9323L14.1217 10.7886L4.45938 3.61719L3.19385 7.42384Z" fill="#763D16" stroke="#763D16" stroke-width="0.0889046" stroke-linecap="round" stroke-linejoin="round"/>
<path d="M26.8372 15.4664L21.5842 13.9297L23.1812 16.3302L20.8008 20.9504L23.9345 20.9102H28.6049L26.8372 15.4664Z" fill="#F6851B" stroke="#F6851B" stroke-width="0.0889046" stroke-linecap="round" stroke-linejoin="round"/>
<path d="M10.4054 13.9297L5.15243 15.4664L3.40479 20.9102H8.06517L11.1888 20.9504L8.81847 16.3302L10.4054 13.9297Z" fill="#F6851B" stroke="#F6851B" stroke-width="0.0889046" stroke-linecap="round" stroke-linejoin="round"/>
<path d="M17.5368 16.5836L17.8682 10.7882L19.3949 6.66016H12.6152L14.1218 10.7882L14.4734 16.5836L14.5939 18.4116L14.6039 22.9113H17.3861L17.4062 18.4116L17.5368 16.5836Z" fill="#F6851B" stroke="#F6851B" stroke-width="0.0889046" stroke-linecap="round" stroke-linejoin="round"/>
</svg>
